<svg width="400" height="400" viewBox="0 0 400 400" fill="none" xmlns="http://www.w3.org/2000/svg">
<rect width="400" height="400" rx="200" fill="#F72A30"/>
<rect x="57.7783" y="57.7778" width="284.444" height="284.444" rx="142.222" fill="#F72A30"/>
<path d="M86.4462 188.83L125.539 188.889L82.7231 82.7223C82.7231 82.7223 159.673 82.7223 200 82.7223C264.771 82.7223 317.278 135.229 317.278 200C317.278 264.77 264.771 317.277 200 317.277C187.503 317.277 137.041 317.277 137.041 317.277L86.4462 188.83Z" fill="white"/>
<path d="M86.4462 188.83L125.539 188.889L82.7231 82.7223C82.7231 82.7223 159.673 82.7223 200 82.7223C264.771 82.7223 317.278 135.229 317.278 200C317.278 264.77 264.771 317.277 200 317.277C187.503 317.277 137.041 317.277 137.041 317.277L86.4462 188.83Z" fill="url(#paint0_linear_1484_20892)"/>
<path d="M201.906 162.278V187.452C201.906 188.214 202.575 188.83 203.394 188.83H237.581C238.399 188.83 239.068 189.447 239.068 190.209V215.42C239.068 216.182 238.399 216.799 237.581 216.799H203.375C202.557 216.799 201.887 217.416 201.887 218.178V271.221C201.887 271.983 201.218 272.6 200.4 272.6H173.564C172.746 272.6 172.077 271.983 172.077 271.221V134.363C172.077 133.601 172.746 132.984 173.564 132.984H245.051C245.869 132.984 246.538 133.601 246.538 134.363V159.521C246.538 160.282 245.869 160.899 245.051 160.899H203.394C202.557 160.899 201.906 161.516 201.906 162.278Z" fill="#F72A30"/>
<defs>
<linearGradient id="paint0_linear_1484_20892" x1="200" y1="82.7223" x2="200" y2="317.277" gradientUnits="userSpaceOnUse">
<stop stop-color="white"/>
<stop offset="1" stop-color="white" stop-opacity="0"/>
</linearGradient>
</defs>
</svg>
